<?xml version="1.0" encoding="iso-8859-1"?>
<!-- Generator: Adobe Illustrator 19.0.0, SVG Export Plug-In . SVG Version: 6.00 Build 0)  -->
<svg xmlns="http://www.w3.org/2000/svg" xmlns:xlink="http://www.w3.org/1999/xlink" version="1.1" id="Capa_1" x="0px" y="0px" viewBox="0 0 226 226" style="enable-background:new 0 0 226 226;" xml:space="preserve" width="512px" height="512px">
<g>
	<path d="M61.509,63h102.983c7.283,0,13.175-5.43,13.175-12.713V13.419c0-7.283-5.438-13.208-12.144-13.208   s-12.152,5.459-12.152,12.396c0,2.539,0.017,5.393,0.025,6.393h-23.674c-0.033-1-0.065-3.961-0.065-6.498   C129.657,5.564,123.732,0,116.449,0h-6.898c-7.283,0-13.208,5.564-13.208,12.502c0,2.543-0.012,5.498-0.024,6.498H72.644   c-0.012-1-0.022-3.85-0.022-6.393c0-6.938-5.772-12.489-12.477-12.489s-12.477,6.017-12.477,13.3v36.868   C47.667,57.57,54.226,63,61.509,63z" fill="#ffffff"/>
	<path d="M180.948,185.169c0.986-2.301,1.536-4.831,1.536-7.488c0-9.375-6.805-17.172-15.732-18.757l-9.101-69.64   C156.906,83.575,151.616,79,145.86,79H80.047c-5.758,0-11.044,4.576-11.784,10.287l-9.033,69.674   c-8.917,1.592-15.713,9.369-15.713,18.737c0,2.657,0.55,5.179,1.536,7.479c-6.917,3.582-11.663,10.895-11.663,19.206   c0,11.863,9.652,21.617,21.516,21.617h116.189c11.863,0,21.516-9.758,21.516-21.621   C192.61,196.068,187.865,188.751,180.948,185.169z" fill="#ffffff"/>
</g>
<g>
</g>
<g>
</g>
<g>
</g>
<g>
</g>
<g>
</g>
<g>
</g>
<g>
</g>
<g>
</g>
<g>
</g>
<g>
</g>
<g>
</g>
<g>
</g>
<g>
</g>
<g>
</g>
<g>
</g>
</svg>
